D:\school\WTK\thesis\model\3dpredictsim\Results\batch_windlass\Pog_s1_tmt_bCst_d00_k1000_WL30_ig24_act_TTC_GRF.mot
nRows=25
nColumns=19

name D:\school\WTK\thesis\model\3dpredictsim\Results\batch_windlass\Pog_s1_tmt_bCst_d00_k1000_WL30_ig24_act_TTC_GRF.mot
datacolumns 19
datarows 25
range 0.0000000000 0.2984301630
endheader
time 	ground_force_vx	ground_force_vy	ground_force_vz	ground_force_px	ground_force_py	ground_force_pz	1_ground_force_vx	1_ground_force_vy	1_ground_force_vz	1_ground_force_px	1_ground_force_py	1_ground_force_pz	ground_torque_x	ground_torque_y	ground_torque_z	1_ground_torque_x	1_ground_torque_y	1_ground_torque_z
        0.0000000000	      -41.0231310296	       29.3827049941	        8.6444580359	        0.1861308962	        0.0000000000	        0.0547063350	       74.1908041407	      331.6470335579	       -4.2659991285	       -0.3562250618	        0.0000000000	       -0.0255662810	        0.0000000000	        0.0000000000	        0.0000000000	        0.0000000000	        0.0000000000	        0.0000000000	
        0.0124345901	     -112.4407787947	       97.0962784473	       28.3622901487	        0.1972417050	        0.0000000000	        0.0523502321	       40.9123103982	      221.9299689061	       -9.9432149505	       -0.3432464605	        0.0000000000	       -0.0185111028	        0.0000000000	        0.0000000000	        0.0000000000	        0.0000000000	        0.0000000000	        0.0000000000	
        0.0248691803	     -107.9476873008	      261.5139146413	       29.7530864073	        0.2046696129	        0.0000000000	        0.0506828381	       28.7864366295	      175.1717262753	      -14.8047080353	       -0.3402570986	        0.0000000000	       -0.0168642574	        0.0000000000	        0.0000000000	        0.0000000000	        0.0000000000	        0.0000000000	        0.0000000000	
        0.0373037704	      -79.6540093587	      527.4522463987	       -1.3546616503	        0.2092980891	        0.0000000000	        0.0502446069	       24.5477350534	      124.9035845910	      -15.5092786781	       -0.3398316035	        0.0000000000	       -0.0170272962	        0.0000000000	        0.0000000000	        0.0000000000	        0.0000000000	        0.0000000000	        0.0000000000	
        0.0497383605	     -113.3695762586	      806.1710187904	      -22.5218047703	        0.2196069269	        0.0000000000	        0.0520518761	       15.2945919277	       68.3725529073	       -9.3608933106	       -0.3393803142	        0.0000000000	       -0.0167384671	        0.0000000000	        0.0000000000	        0.0000000000	        0.0000000000	        0.0000000000	        0.0000000000	
        0.0621729506	     -152.4283238024	      951.5110522315	      -30.7338284139	        0.2275874716	        0.0000000000	        0.0535652716	       -5.7018590712	       16.5632294188	       -0.9886212905	       -0.3431083719	        0.0000000000	       -0.0157762973	        0.0000000000	        0.0000000000	        0.0000000000	        0.0000000000	        0.0000000000	        0.0000000000	
        0.0746075408	     -155.2245804245	      967.7291857903	      -32.1697730669	        0.2335698470	        0.0000000000	        0.0545509741	        0.0186288717	       -0.0149751825	       -0.0026229494	        0.0000000000	        0.0000000000	        0.0000000000	        0.0000000000	        0.0000000000	        0.0000000000	        0.0000000000	        0.0000000000	        0.0000000000	
        0.0870421309	     -148.4204178530	      915.8018102525	      -26.2412039311	        0.2385612903	        0.0000000000	        0.0551684184	       -0.0184840520	        0.0127543185	        0.0028465081	        0.0000000000	        0.0000000000	        0.0000000000	        0.0000000000	        0.0000000000	        0.0000000000	        0.0000000000	        0.0000000000	        0.0000000000	
        0.0994767210	     -136.1883447755	      861.6078496609	      -20.8952624636	        0.2429301629	        0.0000000000	        0.0551276106	       -1.5716492574	        0.9620511422	        0.2161029610	        0.0000000000	        0.0000000000	        0.0000000000	        0.0000000000	        0.0000000000	        0.0000000000	        0.0000000000	        0.0000000000	        0.0000000000	
        0.1119113111	     -117.7195819074	      810.1724610926	      -19.4373510762	        0.2476979358	        0.0000000000	        0.0547561601	       -0.1422052609	        0.0802706263	        0.0174912530	        0.0000000000	        0.0000000000	        0.0000000000	        0.0000000000	        0.0000000000	        0.0000000000	        0.0000000000	        0.0000000000	        0.0000000000	
        0.1243459013	     -100.9860431598	      756.4867917017	      -19.6075631372	        0.2529076037	        0.0000000000	        0.0542445805	       -0.2258343560	        0.1215928196	        0.0245821397	        0.0000000000	        0.0000000000	        0.0000000000	        0.0000000000	        0.0000000000	        0.0000000000	        0.0000000000	        0.0000000000	        0.0000000000	
        0.1367804914	      -87.5372390013	      707.5306535824	      -19.3264766519	        0.2576519231	        0.0000000000	        0.0537985077	       -0.1501305681	        0.0785084707	        0.0148474843	        0.0000000000	        0.0000000000	        0.0000000000	        0.0000000000	        0.0000000000	        0.0000000000	        0.0000000000	        0.0000000000	        0.0000000000	
        0.1492150815	      -76.4062147846	      671.0946065749	      -19.4702022810	        0.2619054471	        0.0000000000	        0.0534743842	       -0.0852946928	        0.0437807530	        0.0075118318	        0.0000000000	        0.0000000000	        0.0000000000	        0.0000000000	        0.0000000000	        0.0000000000	        0.0000000000	        0.0000000000	        0.0000000000	
        0.1616496716	      -66.1714117142	      645.4707799314	      -19.8054115980	        0.2658148347	        0.0000000000	        0.0532465661	       -0.0530903543	        0.0266724880	        0.0044289657	        0.0000000000	        0.0000000000	        0.0000000000	        0.0000000000	        0.0000000000	        0.0000000000	        0.0000000000	        0.0000000000	        0.0000000000	
        0.1740842618	      -56.5646881006	      625.3857233626	      -20.0722584601	        0.2695358018	        0.0000000000	        0.0530904404	       -0.0422053400	        0.0206368449	        0.0033772082	        0.0000000000	        0.0000000000	        0.0000000000	        0.0000000000	        0.0000000000	        0.0000000000	        0.0000000000	        0.0000000000	        0.0000000000	
        0.1865188519	      -47.7808882910	      609.5875102510	      -20.4126911852	        0.2731936465	        0.0000000000	        0.0529719864	       -0.0415799869	        0.0196817219	        0.0032841127	        0.0000000000	        0.0000000000	        0.0000000000	        0.0000000000	        0.0000000000	        0.0000000000	        0.0000000000	        0.0000000000	        0.0000000000	
        0.1989534420	      -39.8181142791	      597.2208979391	      -20.5849786405	        0.2769178590	        0.0000000000	        0.0528637183	       -0.0492792330	        0.0225591418	        0.0038716264	        0.0000000000	        0.0000000000	        0.0000000000	        0.0000000000	        0.0000000000	        0.0000000000	        0.0000000000	        0.0000000000	        0.0000000000	
        0.2113880322	      -32.8682689628	      587.4164539495	      -20.4395879722	        0.2808089431	        0.0000000000	        0.0527386785	       -0.0682387872	        0.0303122846	        0.0053104358	        0.0000000000	        0.0000000000	        0.0000000000	        0.0000000000	        0.0000000000	        0.0000000000	        0.0000000000	        0.0000000000	        0.0000000000	
        0.2238226223	      -27.5940900345	      580.5637173096	      -19.8455030834	        0.2847752704	        0.0000000000	        0.0525893396	       -0.1064569546	        0.0461088966	        0.0080676886	        0.0000000000	        0.0000000000	        0.0000000000	        0.0000000000	        0.0000000000	        0.0000000000	        0.0000000000	        0.0000000000	        0.0000000000	
        0.2362572124	      -22.3440337521	      576.3805234840	      -19.5368521985	        0.2889366522	        0.0000000000	        0.0523861797	       -0.1781843039	        0.0755815990	        0.0129059601	        0.0000000000	        0.0000000000	        0.0000000000	        0.0000000000	        0.0000000000	        0.0000000000	        0.0000000000	        0.0000000000	        0.0000000000	
        0.2486918025	      -17.8583021454	      573.7307958406	      -19.2223312746	        0.2933627600	        0.0000000000	        0.0521054813	       -0.3023392907	        0.1260199659	        0.0206043829	        0.0000000000	        0.0000000000	        0.0000000000	        0.0000000000	        0.0000000000	        0.0000000000	        0.0000000000	        0.0000000000	        0.0000000000	
        0.2611263927	      -13.8314866178	      571.9720281256	      -19.0755747633	        0.2978583531	        0.0000000000	        0.0517721678	       -0.4912277964	        0.2017292270	        0.0311918005	        0.0000000000	        0.0000000000	        0.0000000000	        0.0000000000	        0.0000000000	        0.0000000000	        0.0000000000	        0.0000000000	        0.0000000000	
        0.2735609828	       -9.8617166056	      570.3330008702	      -19.2955894944	        0.3024457545	        0.0000000000	        0.0513911948	       -0.7337445994	        0.2976137235	        0.0431566654	        0.0000000000	        0.0000000000	        0.0000000000	        0.0000000000	        0.0000000000	        0.0000000000	        0.0000000000	        0.0000000000	        0.0000000000	
        0.2859955729	       -6.1793901104	      568.3232788400	      -19.5659506126	        0.3071381445	        0.0000000000	        0.0509655659	       -0.9868277913	        0.3963604976	        0.0534937087	        0.0000000000	        0.0000000000	        0.0000000000	        0.0000000000	        0.0000000000	        0.0000000000	        0.0000000000	        0.0000000000	        0.0000000000	
        0.2984301630	       -2.7850140732	      566.1060591198	      -19.5180437905	        0.3119173125	        0.0000000000	        0.0505034976	       -1.1942844762	        0.4761768167	        0.0592374867	        0.0000000000	        0.0000000000	        0.0000000000	        0.0000000000	        0.0000000000	        0.0000000000	        0.0000000000	        0.0000000000	        0.0000000000	
